<svg width="20" height="20" viewBox="0 0 20 20" fill="none" xmlns="http://www.w3.org/2000/svg">
<path d="M0 5C0 2.23858 2.23858 0 5 0H15C17.7614 0 20 2.23858 20 5V15C20 17.7614 17.7614 20 15 20H5C2.23858 20 0 17.7614 0 15V5Z" fill="#9CE1FF"/>
<path d="M2.944 15V5.032H6.144C6.89067 5.032 7.49333 5.16 7.952 5.416C8.41067 5.672 8.74667 6.01333 8.96 6.44C9.184 6.856 9.296 7.32533 9.296 7.848C9.296 8.232 9.23733 8.58933 9.12 8.92C9.00267 9.25067 8.816 9.544 8.56 9.8C8.31467 10.056 8 10.2533 7.616 10.392C7.232 10.5307 6.768 10.6 6.224 10.6H4.096V15H2.944ZM4.096 9.608H6.096C6.58667 9.608 6.98133 9.53867 7.28 9.4C7.57867 9.25067 7.79733 9.048 7.936 8.792C8.07467 8.52533 8.144 8.22133 8.144 7.88C8.144 7.54933 8.07467 7.25067 7.936 6.984C7.79733 6.71733 7.57867 6.504 7.28 6.344C6.98133 6.17333 6.592 6.088 6.112 6.088H4.096V9.608ZM10.944 15V5.032H14.144C14.8907 5.032 15.4933 5.16 15.952 5.416C16.4107 5.672 16.7467 6.01333 16.96 6.44C17.184 6.856 17.296 7.32533 17.296 7.848C17.296 8.232 17.2373 8.58933 17.12 8.92C17.0027 9.25067 16.816 9.544 16.56 9.8C16.3147 10.056 16 10.2533 15.616 10.392C15.232 10.5307 14.768 10.6 14.224 10.6H12.096V15H10.944ZM12.096 9.608H14.096C14.5867 9.608 14.9813 9.53867 15.28 9.4C15.5787 9.25067 15.7973 9.048 15.936 8.792C16.0747 8.52533 16.144 8.22133 16.144 7.88C16.144 7.54933 16.0747 7.25067 15.936 6.984C15.7973 6.71733 15.5787 6.504 15.28 6.344C14.9813 6.17333 14.592 6.088 14.112 6.088H12.096V9.608Z" fill="black"/>
<path d="M5 1H15V-1H5V1ZM19 5V15H21V5H19ZM15 19H5V21H15V19ZM1 15V5H-1V15H1ZM5 19C2.79086 19 1 17.2091 1 15H-1C-1 18.3137 1.68629 21 5 21V19ZM19 15C19 17.2091 17.2091 19 15 19V21C18.3137 21 21 18.3137 21 15H19ZM15 1C17.2091 1 19 2.79086 19 5H21C21 1.68629 18.3137 -1 15 -1V1ZM5 -1C1.68629 -1 -1 1.68629 -1 5H1C1 2.79086 2.79086 1 5 1V-1Z" fill="black"/>
</svg>
